<?xml version="1.0" encoding="UTF-8" standalone="no"?>
<!-- Created with Inkscape (http://www.inkscape.org/) -->

<svg
   width="21.474861mm"
   height="21.474861mm"
   viewBox="0 0 21.474861 21.474861"
   version="1.1"
   id="svg1"
   inkscape:version="1.3 (0e150ed6c4, 2023-07-21)"
   sodipodi:docname="app_icon.svg"
   xmlns:inkscape="http://www.inkscape.org/namespaces/inkscape"
   xmlns:sodipodi="http://sodipodi.sourceforge.net/DTD/sodipodi-0.dtd"
   xmlns:xlink="http://www.w3.org/1999/xlink"
   xmlns="http://www.w3.org/2000/svg"
   xmlns:svg="http://www.w3.org/2000/svg">
  <sodipodi:namedview
     id="namedview1"
     pagecolor="#ffffff"
     bordercolor="#000000"
     borderopacity="0.25"
     inkscape:showpageshadow="2"
     inkscape:pageopacity="0.0"
     inkscape:pagecheckerboard="0"
     inkscape:deskcolor="#d1d1d1"
     inkscape:document-units="mm"
     inkscape:zoom="2.724341"
     inkscape:cx="51.388574"
     inkscape:cy="43.496757"
     inkscape:window-width="1521"
     inkscape:window-height="881"
     inkscape:window-x="182"
     inkscape:window-y="9"
     inkscape:window-maximized="0"
     inkscape:current-layer="layer1" />
  <defs
     id="defs1">
    <linearGradient
       id="linearGradient1"
       inkscape:collect="always">
      <stop
         style="stop-color:#d0282f;stop-opacity:1;"
         offset="0"
         id="stop1" />
      <stop
         style="stop-color:#ffcb69;stop-opacity:1;"
         offset="1"
         id="stop2" />
    </linearGradient>
    <linearGradient
       inkscape:collect="always"
       xlink:href="#linearGradient1"
       id="linearGradient2"
       x1="94.620979"
       y1="156.48688"
       x2="94.620979"
       y2="124.42306"
       gradientUnits="userSpaceOnUse" />
    <filter
       height="24.928506"
       width="24.928506"
       y="-11.964253"
       x="-11.964253"
       style="color-interpolation-filters:sRGB;"
       inkscape:label="Drop Shadow"
       id="filter3">
      <feGaussianBlur
         stdDeviation="27.6146 27.6146"
         result="blur"
         id="feGaussianBlur3" />
      <feColorMatrix
         values="1 0 0 0 0 0 1 0 0 0 0 0 1 0 0 0 0 0 50 0 "
         result="colormatrix"
         id="feColorMatrix3" />
      <feComposite
         in="colormatrix"
         in2="SourceGraphic"
         operator="in"
         id="feComposite3"
         result="fbSourceGraphic" />
      <feColorMatrix
         result="fbSourceGraphicAlpha"
         in="fbSourceGraphic"
         values="0 0 0 -1 0 0 0 0 -1 0 0 0 0 -1 0 0 0 0 1 0"
         id="feColorMatrix4" />
      <feGaussianBlur
         id="feGaussianBlur4"
         stdDeviation="27.6146 27.6146"
         result="blur"
         in="fbSourceGraphic" />
      <feColorMatrix
         id="feColorMatrix5"
         values="1 0 0 0 0 0 1 0 0 0 0 0 1 0 0 0 0 0 50 0 "
         result="colormatrix" />
      <feComposite
         id="feComposite5"
         in="colormatrix"
         in2="fbSourceGraphic"
         operator="in"
         result="fbSourceGraphic" />
      <feColorMatrix
         result="fbSourceGraphicAlpha"
         in="fbSourceGraphic"
         values="0 0 0 -1 0 0 0 0 -1 0 0 0 0 -1 0 0 0 0 1 0"
         id="feColorMatrix6" />
      <feGaussianBlur
         id="feGaussianBlur6"
         stdDeviation="27.6146 27.6146"
         result="blur"
         in="fbSourceGraphic" />
      <feColorMatrix
         id="feColorMatrix7"
         values="1 0 0 0 0 0 1 0 0 0 0 0 1 0 0 0 0 0 50 0 "
         result="colormatrix" />
      <feComposite
         id="feComposite7"
         in="colormatrix"
         in2="fbSourceGraphic"
         operator="in"
         result="fbSourceGraphic" />
      <feColorMatrix
         result="fbSourceGraphicAlpha"
         in="fbSourceGraphic"
         values="0 0 0 -1 0 0 0 0 -1 0 0 0 0 -1 0 0 0 0 1 0"
         id="feColorMatrix38" />
      <feFlood
         id="feFlood38"
         result="flood"
         in="fbSourceGraphic"
         flood-opacity="0.498039"
         flood-color="rgb(0,0,0)" />
      <feGaussianBlur
         id="feGaussianBlur38"
         result="blur"
         in="fbSourceGraphic"
         stdDeviation="3.900000" />
      <feOffset
         id="feOffset38"
         result="offset"
         in="blur"
         dx="0.000000"
         dy="0.000000" />
      <feComposite
         id="feComposite38"
         result="comp1"
         operator="in"
         in="flood"
         in2="offset" />
      <feComposite
         id="feComposite39"
         result="comp2"
         operator="atop"
         in="comp1"
         in2="comp1" />
    </filter>
  </defs>
  <g
     inkscape:label="Layer 1"
     inkscape:groupmode="layer"
     id="layer1"
     transform="translate(-91.97003,-137.67038)">
    <rect
       style="fill:url(#linearGradient2);stroke:#ff6769;stroke-width:0.539673;stroke-linecap:round;stroke-linejoin:round;paint-order:fill markers stroke"
       id="rect1"
       width="17.400595"
       height="17.400595"
       x="94.007164"
       y="139.7075"
       ry="2.4248631" />
    <path
       id="path207"
       style="fill:#ffffff;stroke-width:0.399915;fill-opacity:1"
       d="m 105.41211,143.60082 c -0.37389,6.3e-4 -0.74791,0.003 -1.12171,0.002 -0.52385,1e-4 -1.04758,2.3e-4 -1.57143,3.3e-4 -1.23446,0.004 -2.46947,-0.003 -3.703586,0.008 -0.633666,0.0506 -1.187919,0.60161 -1.217565,1.2412 -0.01682,0.59966 -9.13e-4,1.20052 -0.0059,1.80058 0.0024,1.05803 -0.002,2.11625 0.0082,3.17408 0.04756,0.63983 0.612744,1.18725 1.253676,1.21723 0.609462,0.0151 1.219975,0.002 1.829795,0.006 0.49355,6e-5 1.65926,3.3e-4 2.15282,3.3e-4 v 0.90636 h -4.910644 v 1.25926 h 6.611754 v -3.73086 h -5.365631 v -4.31744 h 6.829731 v 2.24407 h 1.57998 c -0.004,-0.87472 0.009,-1.75038 -0.0116,-2.62454 -0.0668,-0.61996 -0.61467,-1.1398 -1.23659,-1.1785 -0.37363,-0.008 -0.7475,-0.008 -1.12139,-0.008 z"
       sodipodi:nodetypes="scccccccccccccccccccccs" />
    <path
       id="path201"
       style="fill:#ffffff;stroke-width:0.377689;fill-opacity:1"
       d="m 105.54703,147.72196 c -0.18603,0 -0.33811,0.18956 -0.33811,0.4215 v 4.64999 c 0,0.23195 0.15208,0.42183 0.33811,0.42183 h 2.39542 c 0.18603,0 0.33811,-0.18988 0.33811,-0.42183 v -4.64999 c 0,-0.23195 -0.15208,-0.41756 -0.33811,-0.41756 z m 1.19689,4.5607 a 0.30270493,0.30270493 0 0 1 0.085,0.0119 0.30270493,0.30270493 0 0 1 0.2068,0.3739 l -0.29084,-0.0831 0.28953,0.0883 a 0.30270493,0.30270493 0 0 1 -0.37652,0.20156 0.30270493,0.30270493 0 0 1 -0.20353,-0.37555 0.30270493,0.30270493 0 0 1 0.28953,-0.21699 z" />
  </g>
</svg>
