<?xml version="1.0" encoding="UTF-8" standalone="no"?>
<!-- Created with Inkscape (http://www.inkscape.org/) -->

<svg
   width="16.51433mm"
   height="15.135602mm"
   viewBox="0 0 16.51433 15.135602"
   version="1.1"
   id="svg1"
   inkscape:version="1.3 (0e150ed6c4, 2023-07-21)"
   sodipodi:docname="login_icon.svg"
   xmlns:inkscape="http://www.inkscape.org/namespaces/inkscape"
   xmlns:sodipodi="http://sodipodi.sourceforge.net/DTD/sodipodi-0.dtd"
   xmlns="http://www.w3.org/2000/svg"
   xmlns:svg="http://www.w3.org/2000/svg">
  <sodipodi:namedview
     id="namedview1"
     pagecolor="#ffffff"
     bordercolor="#000000"
     borderopacity="0.25"
     inkscape:showpageshadow="2"
     inkscape:pageopacity="0.0"
     inkscape:pagecheckerboard="0"
     inkscape:deskcolor="#d1d1d1"
     inkscape:document-units="mm"
     inkscape:zoom="0.29734127"
     inkscape:cx="30.26825"
     inkscape:cy="30.26825"
     inkscape:window-width="695"
     inkscape:window-height="600"
     inkscape:window-x="182"
     inkscape:window-y="9"
     inkscape:window-maximized="0"
     inkscape:current-layer="layer1" />
  <defs
     id="defs1" />
  <g
     inkscape:label="Layer 1"
     inkscape:groupmode="layer"
     id="layer1"
     transform="translate(-96.83751,-141.02303)">
    <path
       id="path207"
       style="fill:#cccccc;stroke-width:0.629542"
       d="m 108.83635,141.02348 c -0.58857,0.001 -1.17737,0.005 -1.76578,0.002 -0.82465,1.5e-4 -1.6491,3.7e-4 -2.47375,5.3e-4 -1.94326,0.007 -3.8874,-0.005 -5.830137,0.0129 -0.997511,0.0797 -1.870011,0.94704 -1.916678,1.95388 -0.02647,0.94398 -0.0014,1.88984 -0.0093,2.83445 0.0038,1.66554 -0.0031,3.33138 0.01292,4.9966 0.07488,1.00722 0.964575,1.86896 1.973523,1.91616 0.95941,0.0238 1.920472,0.002 2.880442,0.009 0.77694,1e-4 2.612,5.3e-4 3.38894,5.3e-4 v 1.42679 h -7.730274 v 1.98231 H 107.7744 v -5.87308 h -8.446511 v -6.79648 h 10.751281 v 3.5326 h 2.48719 c -0.006,-1.37697 0.0141,-2.75544 -0.0181,-4.13153 -0.10519,-0.97593 -0.96763,-1.79425 -1.94665,-1.85518 -0.58814,-0.0122 -1.1767,-0.0128 -1.76527,-0.0114 z"
       sodipodi:nodetypes="scccccccccccccccccccccs" />
    <path
       id="path201"
       style="fill:#ff6600;stroke-width:0.594553"
       d="m 109.04874,147.51094 c -0.29286,0 -0.53226,0.2984 -0.53226,0.66352 v 7.31997 c 0,0.36512 0.2394,0.66404 0.53226,0.66404 h 3.77083 c 0.29286,0 0.53227,-0.29892 0.53227,-0.66404 v -7.31997 c 0,-0.36513 -0.23941,-0.65732 -0.53227,-0.65732 z m 1.88413,7.1794 a 0.47651487,0.47651487 0 0 1 0.13384,0.0186 0.47651487,0.47651487 0 0 1 0.32556,0.58859 l -0.45785,-0.13074 0.45578,0.13901 a 0.47651487,0.47651487 0 0 1 -0.59273,0.31729 0.47651487,0.47651487 0 0 1 -0.32039,-0.59118 0.47651487,0.47651487 0 0 1 0.45579,-0.34158 z" />
  </g>
</svg>
