<?xml version="1.0" encoding="UTF-8" standalone="no"?>
<!-- Created with Inkscape (http://www.inkscape.org/) -->

<svg
   width="113.35123mm"
   height="160.97673mm"
   viewBox="0 0 113.35123 160.97673"
   version="1.1"
   id="svg1"
   inkscape:version="1.3 (0e150ed6c4, 2023-07-21)"
   sodipodi:docname="login_background.svg"
   xmlns:inkscape="http://www.inkscape.org/namespaces/inkscape"
   xmlns:sodipodi="http://sodipodi.sourceforge.net/DTD/sodipodi-0.dtd"
   xmlns="http://www.w3.org/2000/svg"
   xmlns:svg="http://www.w3.org/2000/svg">
  <sodipodi:namedview
     id="namedview1"
     pagecolor="#ffffff"
     bordercolor="#000000"
     borderopacity="0.25"
     inkscape:showpageshadow="2"
     inkscape:pageopacity="0.0"
     inkscape:pagecheckerboard="0"
     inkscape:deskcolor="#d1d1d1"
     inkscape:document-units="mm"
     inkscape:zoom="0.96752062"
     inkscape:cx="365.88367"
     inkscape:cy="368.4676"
     inkscape:window-width="1920"
     inkscape:window-height="1009"
     inkscape:window-x="-8"
     inkscape:window-y="-8"
     inkscape:window-maximized="1"
     inkscape:current-layer="layer1" />
  <defs
     id="defs1">
    <inkscape:path-effect
       effect="spiro"
       id="path-effect3"
       is_visible="true"
       lpeversion="1" />
  </defs>
  <g
     inkscape:label="Layer 1"
     inkscape:groupmode="layer"
     id="layer1"
     transform="translate(-8.2038755,-6.5629248)">
    <path
       id="rect1"
       style="fill:#ff6769;fill-opacity:1;stroke-width:0.645999;stroke-linecap:round;stroke-linejoin:round;paint-order:fill markers stroke"
       d="M 121.5551,64.873582 V 6.5629288 H 90.790567 c -0.68244,0.636206 -1.33666,1.302388 -1.9606,1.995227 -0.62395,0.69284 -1.21765,1.4124 -1.78026,2.1559412 -0.56261,0.743541 -1.09371,1.51129 -1.59215,2.299601 -0.49843,0.788312 -0.96436,1.59751 -1.39578,2.424659 -0.43142,0.827149 -0.82854,1.67209 -1.19011,2.532145 -0.36157,0.860055 -0.68728,1.735033 -0.97617,2.622062 -0.28888,0.887029 -0.54111,1.786338 -0.75447,2.694409 -0.21336,0.908072 -0.38798,1.824971 -0.52297,2.748153 -0.13499,0.923182 -0.23028,1.851518 -0.28628,2.782259 -0.05601,0.930741 -0.07276,1.864016 -0.05116,2.796212 0.0216,0.932195 0.08149,1.863498 0.17931,2.791044 0.09783,0.927545 0.23352,1.850999 0.40618,2.76779 0.17267,0.91679 0.38226,1.827034 0.62839,2.726965 0.24612,0.899931 0.52877,1.789537 0.84697,2.666504 0.31821,0.876967 0.67202,1.741091 1.06092,2.588989 0.3889,0.847899 0.81302,1.679629 1.27124,2.492354 0.45822,0.812725 0.95019,1.60607 1.47381,2.377633 0.52363,0.771563 1.079,1.521339 1.66347,2.247925 0.58446,0.726586 1.19791,1.430087 1.83864,2.107882 0.64074,0.677794 1.30847,1.330248 2.00092,1.955436 0.69244,0.625188 1.40964,1.222855 2.14922,1.791622 0.73958,0.568767 1.50142,1.108424 2.28358,1.616955 0.78216,0.508531 1.58485,0.985923 2.40502,1.430404 0.82017,0.444481 1.657873,0.855867 2.511483,1.232483 0.8536,0.376615 1.72223,0.718293 2.60294,1.024743 0.88071,0.306451 1.77363,0.577958 2.6758,0.813904 0.90218,0.235946 1.81362,0.436413 2.73162,0.601514 0.918,0.165101 1.8427,0.294691 2.77089,0.388607 0.92819,0.09392 1.85986,0.152275 2.79259,0.174666 0.93274,0.02239 1.86663,0.0087 2.79828,-0.04082 0.93165,-0.04948 1.86096,-0.134635 2.78588,-0.256315 0.46862,-0.06165 0.93152,-0.160043 1.39733,-0.240296 z"
       sodipodi:nodetypes="cccssssssssssssssssssssssssssssscssc" />
    <path
       id="path3"
       style="fill:#b22828;stroke-width:0.645999;stroke-linecap:round;stroke-linejoin:round;paint-order:fill markers stroke"
       d="m 121.5551,127.94001 -17.03772,-4.56509 -49.497243,4.92218 -34.18344,23.51794 -12.6328215,-1.73374 v 17.45836 H 121.5551 Z"
       sodipodi:nodetypes="cccccccc" />
    <path
       id="path4"
       style="fill:#fa0101;fill-opacity:1;stroke-width:0.645999;stroke-linecap:round;stroke-linejoin:round;paint-order:fill markers stroke"
       d="M 8.2038755,6.5629288 V 150.0813 l 12.6328215,1.73374 34.18344,-23.51794 49.497243,-4.92218 17.03772,4.56509 V 64.873582 c -0.46581,0.08025 -0.92871,0.178644 -1.39733,0.240296 -0.92492,0.121679 -1.85423,0.20684 -2.78588,0.256315 -0.93165,0.04948 -1.86554,0.06321 -2.79828,0.04082 -0.93273,-0.02239 -1.8644,-0.08075 -2.79259,-0.174666 -0.92819,-0.09392 -1.85289,-0.223506 -2.77089,-0.388607 -0.918,-0.165101 -1.82944,-0.365568 -2.73162,-0.601514 -0.90217,-0.235946 -1.79509,-0.507453 -2.6758,-0.813904 -0.88071,-0.306449 -1.74935,-0.648129 -2.60294,-1.024743 -0.85361,-0.376616 -1.691313,-0.788003 -2.511483,-1.232483 -0.82017,-0.444481 -1.62286,-0.921873 -2.40502,-1.430404 -0.78216,-0.50853 -1.544,-1.048189 -2.28358,-1.616955 -0.73958,-0.568767 -1.45679,-1.166435 -2.14922,-1.791622 -0.69245,-0.625188 -1.36018,-1.277643 -2.00092,-1.955436 -0.64073,-0.677795 -1.25418,-1.381297 -1.83864,-2.107882 -0.58447,-0.726585 -1.13984,-1.476363 -1.66347,-2.247925 -0.52362,-0.771562 -1.01559,-1.564908 -1.47381,-2.377633 -0.45822,-0.812724 -0.88234,-1.644456 -1.27124,-2.492354 -0.3889,-0.847897 -0.74271,-1.712023 -1.06092,-2.588989 -0.3182,-0.876966 -0.60085,-1.766574 -0.84697,-2.666504 -0.24613,-0.89993 -0.45572,-1.810176 -0.62839,-2.726965 -0.17266,-0.916791 -0.30835,-1.840246 -0.40618,-2.76779 -0.09782,-0.927545 -0.15771,-1.85885 -0.17931,-2.791044 -0.0216,-0.932195 -0.0049,-1.865472 0.05116,-2.796212 0.056,-0.93074 0.15129,-1.859078 0.28628,-2.782259 0.13499,-0.923181 0.30961,-1.840082 0.52297,-2.748153 0.21336,-0.90807 0.4656,-1.807381 0.75447,-2.694409 0.28889,-0.887028 0.6146,-1.762008 0.97617,-2.622062 0.36157,-0.860054 0.75869,-1.704997 1.19011,-2.532145 0.43142,-0.827148 0.89735,-1.636347 1.39578,-2.424659 0.49844,-0.78831 1.02954,-1.556061 1.59215,-2.299601 0.56261,-0.7435402 1.15631,-1.4631012 1.78026,-2.1559412 0.62393,-0.692838 1.27816,-1.359021 1.9606,-1.995227 z"
       sodipodi:nodetypes="cccccccsssssssssssssssssssssscsscssssscc" />
  </g>
</svg>
